<svg width="418" height="285" viewBox="0 0 418 285" fill="none" xmlns="http://www.w3.org/2000/svg">
<g filter="url(#filter0_d_610_2477)">
<path d="M235 157C235 218.304 185.304 268 124 268C62.6964 268 13 218.304 13 157C13 95.6964 62.6964 46 124 46C185.304 46 235 95.6964 235 157Z" fill="#FF4F4F"/>
<path d="M232.5 157C232.5 216.923 183.923 265.5 124 265.5C64.0771 265.5 15.5 216.923 15.5 157C15.5 97.0771 64.0771 48.5 124 48.5C183.923 48.5 232.5 97.0771 232.5 157Z" stroke="white" stroke-width="5"/>
</g>
<g filter="url(#filter1_d_610_2477)">
<path d="M199.543 215.824C199.543 219.275 197.85 221 194.465 221H184.992C182.453 221 180.923 220.512 180.402 219.535C179.882 218.493 179.589 217.582 179.523 216.801C179.458 215.954 179.328 214.945 179.133 213.773C178.742 210.583 178.189 207.133 177.473 203.422C172.395 212.732 164.419 218.884 153.547 221.879C149.706 222.921 145.474 223.441 140.852 223.441C136.229 223.441 131.607 222.66 126.984 221.098C122.362 219.6 118.26 217.354 114.68 214.359C106.607 207.589 102.57 198.702 102.57 187.699C102.57 175.655 106.997 166.443 115.852 160.062C123.143 154.919 132.518 152.348 143.977 152.348C155.435 152.348 165.135 155.701 173.078 162.406C173.273 160.193 173.371 157.426 173.371 154.105C173.371 150.785 172.72 147.465 171.418 144.145C170.116 140.824 168.26 138.057 165.852 135.844C160.904 131.482 154.003 129.301 145.148 129.301C137.206 129.301 129.133 131.482 120.93 135.844C119.367 136.69 118 137.113 116.828 137.113C115.07 137.113 113.378 135.388 111.75 131.938C109.992 128.422 109.113 125.883 109.113 124.32C109.113 121.456 111.262 118.689 115.559 116.02C123.762 110.941 134.732 108.402 148.469 108.402C160.969 108.402 171.32 111.82 179.523 118.656C189.224 126.859 194.074 138.448 194.074 153.422C194.074 160.062 193 168.428 190.852 178.52C196.385 194.275 199.283 206.71 199.543 215.824ZM134.113 174.418C131.444 176.371 129.523 178.324 128.352 180.277C127.245 182.23 126.691 184.542 126.691 187.211C126.691 189.815 127.147 192.159 128.059 194.242C129.035 196.26 130.37 197.953 132.062 199.32C135.643 202.12 139.647 203.52 144.074 203.52C148.566 203.52 152.245 202.999 155.109 201.957C157.974 200.915 160.448 199.581 162.531 197.953C167.023 194.438 169.27 190.727 169.27 186.82C168.879 181.938 166.177 178.096 161.164 175.297C156.672 172.693 151.366 171.391 145.246 171.391C140.493 171.391 136.783 172.4 134.113 174.418Z" fill="white"/>
<path d="M302.57 224.516C301.854 224.711 300.91 225.004 299.738 225.395C298.566 225.85 297.427 226.078 296.32 226.078C295.409 226.078 294.595 225.85 293.879 225.395C293.228 224.939 292.902 224.158 292.902 223.051V222.465C293.293 218.949 293.618 215.987 293.879 213.578C294.139 211.104 294.367 208.891 294.562 206.938C294.823 204.919 295.018 202.934 295.148 200.98C295.344 198.962 295.572 196.651 295.832 194.047C296.092 191.378 296.385 188.253 296.711 184.672C297.102 181.026 297.557 176.501 298.078 171.098C298.404 167.777 298.697 164.392 298.957 160.941C299.217 157.491 299.348 154.301 299.348 151.371C299.348 149.418 299.185 147.628 298.859 146C298.599 144.307 298.078 142.875 297.297 141.703C296.581 140.466 295.572 139.522 294.27 138.871C292.967 138.22 291.307 137.895 289.289 137.895C287.792 137.895 285.708 138.22 283.039 138.871C280.435 139.522 277.831 140.596 275.227 142.094C272.622 143.591 270.311 145.577 268.293 148.051C266.275 150.46 265.135 153.454 264.875 157.035C264.484 161.853 264.126 165.987 263.801 169.438C263.475 172.823 263.182 175.72 262.922 178.129C262.661 180.473 262.434 182.393 262.238 183.891C262.108 185.388 262.01 186.658 261.945 187.699C261.88 187.96 261.783 188.676 261.652 189.848C261.522 191.02 261.359 192.419 261.164 194.047C261.034 195.674 260.871 197.4 260.676 199.223C260.546 201.046 260.383 202.771 260.188 204.398C260.057 206.026 259.927 207.426 259.797 208.598C259.732 209.77 259.699 210.486 259.699 210.746C259.699 211.267 259.699 211.723 259.699 212.113C259.764 212.439 259.797 212.764 259.797 213.09C259.797 213.611 259.536 214.066 259.016 214.457C258.56 214.783 257.486 215.173 255.793 215.629L229.914 224.516C229.198 224.776 228.254 225.102 227.082 225.492C225.91 225.883 224.771 226.078 223.664 226.078C222.753 226.078 221.939 225.85 221.223 225.395C220.572 224.939 220.246 224.158 220.246 223.051L229.133 123.246C229.328 121.098 229.556 119.633 229.816 118.852C230.142 118.005 230.891 117.452 232.062 117.191C237.987 116.02 244.074 114.848 250.324 113.676C256.574 112.439 262.661 110.876 268.586 108.988C269.107 108.988 269.4 109.086 269.465 109.281C269.595 109.411 269.66 109.639 269.66 109.965C269.66 110.095 269.628 110.29 269.562 110.551C269.562 110.811 269.465 111.397 269.27 112.309C269.139 113.22 268.911 114.62 268.586 116.508C268.326 118.331 267.935 120.902 267.414 124.223C271.906 121.618 276.105 119.535 280.012 117.973C283.983 116.345 287.694 115.108 291.145 114.262C294.66 113.35 297.948 112.764 301.008 112.504C304.068 112.178 306.932 112.016 309.602 112.016C318.781 112.016 325.454 114.815 329.621 120.414C333.788 125.948 335.871 134.281 335.871 145.414C335.871 146.977 335.839 148.604 335.773 150.297C335.708 151.924 335.578 153.617 335.383 155.375L330.891 197.367C330.565 200.102 330.37 202.641 330.305 204.984C330.24 207.263 330.207 209.932 330.207 212.992C330.207 213.513 330.207 213.969 330.207 214.359C330.272 214.685 330.305 214.978 330.305 215.238C330.305 215.824 330.044 216.28 329.523 216.605C329.068 216.931 327.993 217.354 326.301 217.875L302.57 224.516Z" fill="black"/>
</g>
<path d="M227.967 269.419C227.451 269.132 227.164 268.817 227.107 268.473C227.078 268.129 227.279 267.527 227.709 266.667C228.139 265.807 228.813 264.474 229.73 262.668C230.418 261.378 230.934 260.375 231.278 259.658C231.651 258.913 231.894 258.382 232.009 258.067C232.152 257.752 232.224 257.551 232.224 257.465C232.167 257.207 232.195 257.006 232.31 256.863C232.425 256.691 232.611 256.548 232.869 256.433C233.012 256.29 233.242 256.032 233.557 255.659C233.901 255.286 234.216 254.842 234.503 254.326C234.761 253.724 235.062 253.108 235.406 252.477C235.75 251.846 236.209 251.058 236.782 250.112C237.355 249.137 238.101 247.876 239.018 246.328C239.591 245.325 240.222 244.307 240.91 243.275C241.598 242.214 242.329 241.168 243.103 240.136C243.418 239.735 243.705 239.419 243.963 239.19C244.221 238.932 244.479 238.817 244.737 238.846C245.081 238.846 245.468 238.961 245.898 239.19C246.357 239.419 246.772 239.72 247.145 240.093C247.518 240.466 247.79 240.867 247.962 241.297C248.105 241.526 248.163 242.014 248.134 242.759C248.105 243.504 248.048 244.407 247.962 245.468C247.876 246.529 247.776 247.661 247.661 248.865C247.575 250.04 247.446 251.431 247.274 253.036C247.102 254.641 246.93 256.318 246.758 258.067C246.615 259.816 246.5 261.507 246.414 263.141C246.328 264.746 246.328 266.151 246.414 267.355C246.443 267.613 246.443 267.857 246.414 268.086C246.385 268.315 246.371 268.502 246.371 268.645C246.199 268.817 245.912 268.889 245.511 268.86C245.138 268.86 244.766 268.774 244.393 268.602C244.049 268.43 243.848 268.215 243.791 267.957C243.705 267.871 243.648 267.756 243.619 267.613C243.619 267.441 243.633 267.097 243.662 266.581C243.691 266.065 243.719 265.248 243.748 264.13L243.963 257.164L243.404 257.207C243.146 257.207 242.659 257.236 241.942 257.293C241.225 257.35 240.451 257.436 239.62 257.551C238.789 257.637 238.015 257.737 237.298 257.852C236.61 257.938 236.137 258.024 235.879 258.11C235.621 258.11 235.306 258.282 234.933 258.626C234.589 258.97 234.259 259.414 233.944 259.959C233.829 260.36 233.614 260.79 233.299 261.249C233.012 261.679 232.869 261.966 232.869 262.109C232.668 262.252 232.496 262.424 232.353 262.625C232.238 262.826 232.181 262.926 232.181 262.926C232.181 263.098 232.038 263.528 231.751 264.216C231.493 264.875 231.163 265.621 230.762 266.452C230.361 267.255 229.959 267.957 229.558 268.559L228.655 269.935L227.967 269.419ZM236.868 255.573C236.868 255.573 237.011 255.544 237.298 255.487C237.613 255.43 237.972 255.372 238.373 255.315C238.803 255.229 239.19 255.186 239.534 255.186C240.738 254.899 241.612 254.713 242.157 254.627C242.702 254.512 243.074 254.455 243.275 254.455C243.504 254.455 243.705 254.498 243.877 254.584C243.992 254.727 244.092 254.813 244.178 254.842C244.293 254.871 244.35 254.885 244.35 254.885C244.379 254.828 244.422 254.498 244.479 253.896C244.536 253.294 244.608 252.549 244.694 251.66C244.809 250.771 244.909 249.854 244.995 248.908C245.11 247.933 245.196 247.045 245.253 246.242C245.31 245.411 245.353 244.78 245.382 244.35C245.411 243.805 245.439 243.318 245.468 242.888C245.497 242.429 245.511 242.2 245.511 242.2C245.339 242.2 244.966 242.515 244.393 243.146C243.848 243.777 243.232 244.608 242.544 245.64C241.856 246.672 241.211 247.776 240.609 248.951C240.322 249.496 240.05 249.983 239.792 250.413C239.534 250.843 239.333 251.058 239.19 251.058C239.133 251.115 238.961 251.373 238.674 251.832C238.416 252.262 238.129 252.764 237.814 253.337C237.499 253.882 237.241 254.383 237.04 254.842C236.839 255.272 236.782 255.516 236.868 255.573ZM265.686 266.022C265.113 266.022 264.64 265.907 264.267 265.678C263.894 265.42 263.579 265.004 263.321 264.431C263.206 264.03 263.106 263.585 263.02 263.098C262.963 262.582 262.934 262.109 262.934 261.679C262.934 261.22 262.977 260.919 263.063 260.776C263.178 260.661 263.221 260.461 263.192 260.174C263.192 259.859 263.192 259.529 263.192 259.185C263.163 258.612 263.02 258.296 262.762 258.239C262.533 258.153 262.189 258.239 261.73 258.497C261.214 258.812 260.54 259.242 259.709 259.787C258.878 260.303 258.003 260.876 257.086 261.507C256.197 262.138 255.352 262.797 254.549 263.485C253.918 264.173 253.531 264.703 253.388 265.076C253.273 265.42 253.101 265.592 252.872 265.592C252.643 265.707 252.442 265.721 252.27 265.635C252.127 265.52 251.912 265.348 251.625 265.119C251.424 264.89 251.224 264.675 251.023 264.474C250.822 264.245 250.693 264.073 250.636 263.958C250.636 263.815 250.679 263.514 250.765 263.055C250.851 262.596 250.951 262.138 251.066 261.679C251.209 261.22 251.31 260.919 251.367 260.776C251.51 260.776 251.625 260.633 251.711 260.346C251.826 260.059 251.998 259.744 252.227 259.4C252.284 259.056 252.428 258.597 252.657 258.024C252.915 257.422 253.144 256.892 253.345 256.433C253.746 255.745 254.019 255.172 254.162 254.713C254.334 254.254 254.449 253.681 254.506 252.993C254.477 252.878 254.506 252.778 254.592 252.692C254.678 252.577 254.778 252.52 254.893 252.52C255.122 252.291 255.395 252.233 255.71 252.348C256.025 252.434 256.312 252.649 256.57 252.993C257.086 253.681 257.287 254.398 257.172 255.143C257.086 255.86 256.627 256.892 255.796 258.239C255.595 258.698 255.438 259.056 255.323 259.314C255.237 259.543 255.194 259.73 255.194 259.873C255.194 259.873 255.337 259.773 255.624 259.572C255.939 259.371 256.283 259.142 256.656 258.884C257.057 258.597 257.373 258.382 257.602 258.239C257.745 258.096 258.075 257.838 258.591 257.465C259.107 257.092 259.652 256.734 260.225 256.39C260.827 256.017 261.271 255.802 261.558 255.745C261.787 255.63 262.031 255.53 262.289 255.444C262.547 255.329 262.733 255.272 262.848 255.272C263.077 255.272 263.364 255.401 263.708 255.659C264.081 255.888 264.425 256.175 264.74 256.519C265.055 256.834 265.242 257.107 265.299 257.336C265.299 257.451 265.299 257.565 265.299 257.68C265.328 257.795 265.356 257.909 265.385 258.024C265.5 258.397 265.557 258.898 265.557 259.529C265.586 260.16 265.571 260.733 265.514 261.249C265.457 261.765 265.356 262.066 265.213 262.152C265.213 262.152 265.213 262.195 265.213 262.281C265.242 262.338 265.313 262.367 265.428 262.367C265.428 262.482 265.428 262.553 265.428 262.582C265.285 262.582 265.227 262.711 265.256 262.969C265.285 263.198 265.371 263.456 265.514 263.743C265.686 264.03 265.858 264.259 266.03 264.431C266.374 264.775 266.517 265.105 266.46 265.42C266.403 265.707 266.145 265.907 265.686 266.022ZM272.789 267.355C272.417 267.355 272.116 267.283 271.886 267.14C271.686 266.997 271.428 266.796 271.112 266.538C270.568 265.965 270.181 265.42 269.951 264.904C269.722 264.359 269.65 263.843 269.736 263.356C269.822 263.127 269.851 262.912 269.822 262.711C269.822 262.482 269.822 262.367 269.822 262.367C269.679 262.224 269.636 262.138 269.693 262.109C269.751 262.052 269.808 261.966 269.865 261.851C270.037 261.851 270.095 261.693 270.037 261.378C269.98 261.149 270.095 260.647 270.381 259.873C270.668 259.099 271.026 258.368 271.456 257.68C271.628 257.393 271.886 257.021 272.23 256.562C272.574 256.075 272.947 255.602 273.348 255.143C273.778 254.656 274.165 254.269 274.509 253.982C275.226 253.38 275.857 252.936 276.401 252.649C276.946 252.362 277.534 252.147 278.164 252.004C278.795 251.861 279.225 251.789 279.454 251.789C279.712 251.789 280.056 252.018 280.486 252.477C281.146 252.764 281.619 253.108 281.905 253.509C282.221 253.91 282.421 254.498 282.507 255.272C282.593 256.132 282.522 257.121 282.292 258.239C282.092 259.328 281.418 260.69 280.271 262.324C279.555 263.356 278.895 264.13 278.293 264.646C277.691 265.133 276.975 265.621 276.143 266.108C275.541 266.509 274.997 266.81 274.509 267.011C274.022 267.183 273.449 267.298 272.789 267.355ZM276.917 262.797C277.605 262.023 278.15 261.292 278.551 260.604C278.981 259.916 279.383 259.042 279.755 257.981C279.87 257.666 279.942 257.279 279.97 256.82C279.999 256.333 279.985 255.888 279.927 255.487C279.899 255.057 279.798 254.813 279.626 254.756C279.282 254.555 278.867 254.498 278.379 254.584C277.892 254.641 277.362 254.914 276.788 255.401C275.9 256.146 275.126 257.078 274.466 258.196C273.807 259.285 273.162 260.532 272.531 261.937C272.101 262.969 272.001 263.8 272.23 264.431C272.488 265.033 273.019 265.248 273.821 265.076C274.653 264.875 275.685 264.116 276.917 262.797ZM289.497 266.366C288.895 266.481 288.508 266.524 288.336 266.495C288.192 266.438 287.963 266.266 287.648 265.979C287.189 265.75 286.802 265.463 286.487 265.119C286.2 264.775 285.985 264.417 285.842 264.044C285.727 263.643 285.684 263.313 285.713 263.055C285.799 262.052 286.042 260.977 286.444 259.83C286.845 258.683 287.332 257.58 287.906 256.519C288.479 255.458 289.095 254.555 289.755 253.81C290.443 253.036 291.102 252.534 291.733 252.305C292.306 252.076 292.851 251.99 293.367 252.047C293.883 252.104 294.255 252.377 294.485 252.864C294.915 253.695 294.814 254.226 294.184 254.455C294.098 254.455 293.997 254.498 293.883 254.584C293.768 254.641 293.711 254.727 293.711 254.842C293.825 254.899 294.141 254.914 294.657 254.885C295.173 254.828 295.689 254.742 296.205 254.627C296.749 254.484 297.108 254.34 297.28 254.197C297.452 254.111 297.581 254.068 297.667 254.068C297.753 254.068 297.968 254.097 298.312 254.154C298.799 254.297 299.043 254.469 299.043 254.67C299.043 254.785 299.086 254.899 299.172 255.014C299.258 255.1 299.358 255.143 299.473 255.143C299.673 255.172 299.645 255.301 299.387 255.53C299.157 255.759 298.756 256.075 298.183 256.476C297.638 256.82 297.294 257.049 297.151 257.164C297.036 257.25 297.022 257.451 297.108 257.766C297.337 258.311 297.351 258.941 297.151 259.658C296.95 260.375 296.592 261.106 296.076 261.851C295.56 262.596 294.929 263.299 294.184 263.958C293.467 264.589 292.693 265.133 291.862 265.592C291.059 266.022 290.271 266.28 289.497 266.366ZM288.766 264.474C288.88 264.474 289.081 264.417 289.368 264.302C289.654 264.159 289.884 264.044 290.056 263.958C290.17 263.843 290.314 263.714 290.486 263.571C290.686 263.399 290.844 263.299 290.959 263.27C291.073 263.27 291.217 263.227 291.389 263.141C291.561 263.026 291.804 262.811 292.12 262.496C292.435 262.152 292.851 261.65 293.367 260.991C293.94 260.36 294.384 259.787 294.7 259.271C295.015 258.726 295.101 258.225 294.958 257.766C294.929 257.651 294.843 257.58 294.7 257.551C294.585 257.522 294.427 257.451 294.227 257.336C293.94 257.336 293.668 257.264 293.41 257.121C293.18 256.949 292.908 256.734 292.593 256.476L291.905 255.616L291.174 256.347C290.715 256.806 290.228 257.494 289.712 258.411C289.224 259.3 288.809 260.217 288.465 261.163C288.121 262.08 287.92 262.811 287.863 263.356C287.834 263.786 287.906 264.073 288.078 264.216C288.25 264.359 288.479 264.445 288.766 264.474ZM300.313 275.525C299.969 275.754 299.61 275.74 299.238 275.482C298.894 275.224 298.636 274.837 298.464 274.321C298.292 273.805 298.306 273.26 298.507 272.687C298.564 272.515 298.65 272.228 298.765 271.827C298.879 271.454 298.951 271.125 298.98 270.838C299.008 270.637 299.094 270.293 299.238 269.806C299.381 269.347 299.539 268.889 299.711 268.43C299.911 267.971 300.069 267.642 300.184 267.441C300.356 267.154 300.47 266.825 300.528 266.452C300.614 266.079 300.657 265.793 300.657 265.592C300.714 265.391 300.786 265.162 300.872 264.904C300.986 264.646 301.101 264.445 301.216 264.302C301.273 264.073 301.359 263.829 301.474 263.571C301.588 263.284 301.717 263.041 301.861 262.84C301.918 262.639 301.961 262.396 301.99 262.109C302.047 261.822 302.133 261.665 302.248 261.636C302.276 261.521 302.291 261.407 302.291 261.292C302.319 261.177 302.377 261.02 302.463 260.819C302.52 260.504 302.649 260.045 302.85 259.443C303.05 258.841 303.294 258.182 303.581 257.465C303.896 256.634 304.039 255.845 304.011 255.1C304.011 254.326 303.796 253.853 303.366 253.681C303.136 253.566 302.993 253.409 302.936 253.208C302.878 252.979 302.907 252.749 303.022 252.52C303.136 252.291 303.308 252.133 303.538 252.047C303.796 251.932 304.068 251.889 304.355 251.918C304.67 251.947 304.942 252.004 305.172 252.09C305.401 252.147 305.501 252.205 305.473 252.262C305.473 252.405 305.544 252.491 305.688 252.52C305.745 252.434 305.86 252.534 306.032 252.821C306.232 253.079 306.419 253.38 306.591 253.724C306.763 254.068 306.849 254.312 306.849 254.455C306.791 254.57 306.763 254.641 306.763 254.67C306.763 254.67 306.82 254.67 306.935 254.67C306.935 254.67 307.092 254.598 307.408 254.455C307.723 254.283 308.053 254.097 308.397 253.896C308.769 253.667 309.013 253.495 309.128 253.38C309.128 253.38 309.199 253.351 309.343 253.294C309.515 253.208 309.658 253.108 309.773 252.993C310.346 252.764 310.962 252.721 311.622 252.864C312.31 253.007 312.854 253.265 313.256 253.638C313.829 254.355 314.116 255.043 314.116 255.702C314.144 256.361 313.958 257.193 313.557 258.196C313.499 258.339 313.37 258.583 313.17 258.927C312.998 259.242 312.826 259.543 312.654 259.83C312.482 260.088 312.396 260.217 312.396 260.217C311.736 261.249 310.962 262.109 310.074 262.797C309.185 263.485 308.282 264.087 307.365 264.603C307.078 264.804 306.777 264.961 306.462 265.076C306.175 265.162 305.917 265.219 305.688 265.248C305.458 265.248 305.301 265.219 305.215 265.162C304.899 264.933 304.613 264.445 304.355 263.7C304.211 264.073 304.068 264.445 303.925 264.818C303.81 265.162 303.738 265.391 303.71 265.506C303.681 265.707 303.652 265.879 303.624 266.022C303.595 266.137 303.523 266.237 303.409 266.323C303.409 266.323 303.394 266.38 303.366 266.495C303.337 266.61 303.237 266.782 303.065 267.011C302.778 267.842 302.52 268.559 302.291 269.161C302.061 269.792 301.875 270.322 301.732 270.752C301.588 271.211 301.474 271.612 301.388 271.956C301.33 272.73 301.173 273.49 300.915 274.235C300.657 275.009 300.456 275.439 300.313 275.525ZM305.43 263.27C305.544 263.213 305.788 263.055 306.161 262.797C306.562 262.51 307.006 262.181 307.494 261.808C307.981 261.407 308.425 261.034 308.827 260.69C309.257 260.346 309.543 260.088 309.687 259.916C309.916 259.658 310.131 259.386 310.332 259.099C310.532 258.784 310.69 258.44 310.805 258.067C310.891 257.838 310.991 257.58 311.106 257.293C311.22 257.006 311.321 256.734 311.407 256.476C311.521 256.247 311.564 256.017 311.536 255.788C311.536 255.53 311.45 255.315 311.278 255.143C311.163 255.114 310.819 255.2 310.246 255.401C309.672 255.573 309.042 255.874 308.354 256.304C307.666 256.705 307.064 257.236 306.548 257.895C305.946 258.669 305.501 259.472 305.215 260.303C304.957 261.134 304.842 261.837 304.871 262.41C304.928 262.983 305.114 263.27 305.43 263.27ZM326.677 270.666C326.39 270.351 326.204 270.078 326.118 269.849C326.032 269.648 326.018 269.39 326.075 269.075C326.161 268.788 326.276 268.373 326.419 267.828C326.648 266.911 326.892 266.151 327.15 265.549C327.437 264.918 327.709 264.273 327.967 263.614C328.254 262.926 328.497 262.052 328.698 260.991C329.157 259.93 329.558 258.927 329.902 257.981C330.275 257.035 330.561 256.261 330.762 255.659C330.963 255.057 331.063 254.756 331.063 254.756C331.092 254.641 331.221 254.34 331.45 253.853C331.679 253.366 331.966 252.778 332.31 252.09C332.683 251.373 333.027 250.657 333.342 249.94C333.829 248.564 334.216 247.389 334.503 246.414C334.818 245.411 335.134 244.508 335.449 243.705C335.764 242.902 336.18 242.114 336.696 241.34C337.04 240.738 337.441 240.351 337.9 240.179C338.359 240.007 338.789 240.021 339.19 240.222C339.62 240.394 339.921 240.767 340.093 241.34C340.236 241.627 340.351 241.971 340.437 242.372C340.552 242.773 340.652 243.361 340.738 244.135C340.824 244.88 340.881 245.941 340.91 247.317C340.967 248.951 340.982 250.571 340.953 252.176C340.924 253.753 340.924 255.215 340.953 256.562C341.01 257.909 341.168 259.056 341.426 260.002C341.512 260.518 341.627 261.149 341.77 261.894C341.942 262.611 342.114 263.327 342.286 264.044C342.487 264.761 342.673 265.363 342.845 265.85C343.046 266.337 343.203 266.581 343.318 266.581C343.461 266.581 343.648 266.395 343.877 266.022C344.135 265.649 344.45 264.976 344.823 264.001C345.224 263.026 345.697 261.65 346.242 259.873C346.787 258.067 347.403 255.759 348.091 252.95C348.234 252.463 348.421 251.674 348.65 250.585C348.908 249.496 349.094 248.392 349.209 247.274C349.41 246.557 349.61 245.769 349.811 244.909C350.012 244.049 350.184 243.289 350.327 242.63C350.499 241.971 350.585 241.598 350.585 241.512C350.585 241.311 350.585 241.139 350.585 240.996C350.614 240.853 350.614 240.709 350.585 240.566C350.728 240.566 350.857 240.38 350.972 240.007C351.087 239.606 351.144 239.262 351.144 238.975C351.144 238.488 351.201 238.101 351.316 237.814C351.459 237.499 351.603 237.269 351.746 237.126C351.832 236.897 352.047 236.796 352.391 236.825C352.735 236.825 353.079 236.911 353.423 237.083C353.767 237.255 353.982 237.484 354.068 237.771C354.125 238.086 354.039 238.803 353.81 239.921C353.609 241.01 353.294 242.487 352.864 244.35C352.864 244.665 352.778 245.181 352.606 245.898C352.434 246.615 352.248 247.374 352.047 248.177C351.875 248.98 351.746 249.668 351.66 250.241C351.545 250.986 351.416 251.689 351.273 252.348C351.13 252.979 350.986 253.28 350.843 253.251C350.098 256.49 349.309 259.257 348.478 261.55C347.675 263.815 346.959 265.664 346.328 267.097C345.64 268.674 344.88 269.62 344.049 269.935C343.246 270.279 342.386 269.863 341.469 268.688C340.924 267.943 340.494 267.212 340.179 266.495C339.864 265.75 339.606 264.89 339.405 263.915C339.204 262.912 338.961 261.679 338.674 260.217C338.244 259.042 338 257.852 337.943 256.648C337.914 255.444 337.957 254.211 338.072 252.95C338.187 251.66 338.273 250.327 338.33 248.951C338.301 247.575 338.244 246.658 338.158 246.199C338.072 245.74 337.9 245.769 337.642 246.285C337.413 246.772 337.026 247.776 336.481 249.295C336.28 249.84 336.008 250.499 335.664 251.273C335.349 252.047 335.033 252.821 334.718 253.595C334.403 254.34 334.13 255 333.901 255.573C333.672 256.118 333.528 256.462 333.471 256.605C333.299 256.949 333.098 257.408 332.869 257.981C332.64 258.526 332.453 259.113 332.31 259.744C331.278 262.439 330.504 264.589 329.988 266.194C329.501 267.799 329.142 268.917 328.913 269.548C328.626 270.351 328.325 270.881 328.01 271.139C327.695 271.426 327.25 271.268 326.677 270.666ZM355.213 266.581C354.869 266.638 354.496 266.581 354.095 266.409C353.694 266.237 353.335 265.993 353.02 265.678C352.733 265.363 352.547 265.033 352.461 264.689C352.346 264.087 352.418 263.342 352.676 262.453C352.963 261.536 353.364 260.575 353.88 259.572C354.425 258.54 355.027 257.551 355.686 256.605C356.374 255.659 357.076 254.842 357.793 254.154C358.538 253.437 359.226 252.95 359.857 252.692C360.172 252.491 360.416 252.362 360.588 252.305C360.789 252.219 360.989 252.205 361.19 252.262C361.419 252.319 361.749 252.463 362.179 252.692C362.58 252.807 362.881 252.936 363.082 253.079C363.283 253.222 363.541 253.509 363.856 253.939C364.085 254.369 364.257 254.799 364.372 255.229C364.487 255.659 364.587 256.146 364.673 256.691C364.902 257.408 364.988 257.881 364.931 258.11C364.874 258.311 364.788 258.468 364.673 258.583C364.444 258.87 364.386 259.013 364.501 259.013C364.501 259.013 364.487 259.07 364.458 259.185C364.458 259.271 364.401 259.414 364.286 259.615C364.085 260.246 363.928 260.905 363.813 261.593C363.727 262.252 363.741 262.797 363.856 263.227C364.085 263.858 364.501 264.23 365.103 264.345C365.705 264.46 366.321 264.202 366.952 263.571C367.267 263.342 367.568 263.141 367.855 262.969C368.142 262.768 368.285 262.783 368.285 263.012C368.285 263.012 368.328 263.055 368.414 263.141C368.5 263.198 368.6 263.227 368.715 263.227C368.858 263.227 368.944 263.284 368.973 263.399C369.03 263.514 369.03 263.671 368.973 263.872C368.944 264.044 368.858 264.245 368.715 264.474C368.285 264.904 368.07 265.191 368.07 265.334C368.07 265.334 368.013 265.391 367.898 265.506C367.812 265.592 367.654 265.735 367.425 265.936C366.909 266.251 366.25 266.409 365.447 266.409C364.673 266.409 364.071 266.251 363.641 265.936C363.211 265.621 362.81 265.191 362.437 264.646C362.093 264.101 361.864 263.628 361.749 263.227L361.534 262.797L360.287 263.614C359.972 263.929 359.628 264.23 359.255 264.517C358.911 264.804 358.682 265.004 358.567 265.119C358.481 265.234 358.381 265.334 358.266 265.42C358.18 265.506 358.08 265.549 357.965 265.549C357.85 265.549 357.75 265.549 357.664 265.549C357.578 265.549 357.535 265.549 357.535 265.549C357.535 265.664 357.392 265.807 357.105 265.979C356.847 266.151 356.532 266.294 356.159 266.409C355.815 266.524 355.5 266.581 355.213 266.581ZM354.783 264.259C354.955 264.259 355.256 264.13 355.686 263.872C356.145 263.585 356.646 263.256 357.191 262.883C357.764 262.51 358.266 262.138 358.696 261.765C359.155 261.392 359.47 261.106 359.642 260.905C359.757 260.79 359.943 260.604 360.201 260.346C360.459 260.059 360.688 259.816 360.889 259.615C361.548 258.87 362.007 258.053 362.265 257.164C362.523 256.247 362.494 255.53 362.179 255.014C362.064 254.699 361.921 254.527 361.749 254.498C361.577 254.469 361.219 254.57 360.674 254.799C360.33 255 359.9 255.387 359.384 255.96C358.897 256.505 358.366 257.15 357.793 257.895C357.248 258.612 356.732 259.357 356.245 260.131C355.758 260.905 355.356 261.622 355.041 262.281C354.726 262.94 354.568 263.456 354.568 263.829C354.568 263.944 354.597 264.044 354.654 264.13C354.74 264.216 354.783 264.259 354.783 264.259ZM373.194 277.89C373.165 277.947 373.036 277.89 372.807 277.718C372.606 277.546 372.405 277.331 372.205 277.073C372.004 276.844 371.918 276.643 371.947 276.471C371.832 276.07 371.846 275.568 371.99 274.966C372.162 274.393 372.52 273.533 373.065 272.386C373.351 271.927 373.609 271.383 373.839 270.752C374.097 270.121 374.383 269.491 374.699 268.86C374.842 268.602 375.157 268.043 375.645 267.183C376.132 266.323 376.648 265.348 377.193 264.259C377.766 263.17 378.239 262.138 378.612 261.163C377.866 261.937 377.178 262.725 376.548 263.528C375.917 264.302 375.329 264.933 374.785 265.42C374.269 265.907 373.781 266.137 373.323 266.108C372.95 266.022 372.549 265.893 372.119 265.721C371.717 265.52 371.445 265.176 371.302 264.689C371.187 264.058 371.144 263.256 371.173 262.281C371.23 261.306 371.416 259.83 371.732 257.852C371.961 256.877 372.09 256.132 372.119 255.616C372.176 255.071 372.162 254.67 372.076 254.412C371.99 254.154 371.832 253.925 371.603 253.724C371.23 253.38 371.029 253.079 371.001 252.821C371.001 252.534 371.201 252.291 371.603 252.09C372.205 251.947 372.635 251.904 372.893 251.961C373.151 251.99 373.466 252.219 373.839 252.649C374.068 253.022 374.269 253.38 374.441 253.724C374.641 254.039 374.742 254.598 374.742 255.401C374.742 255.745 374.684 256.204 374.57 256.777C374.484 257.35 374.398 257.895 374.312 258.411C374.254 258.898 374.211 259.242 374.183 259.443C373.896 260.504 373.71 261.421 373.624 262.195C373.566 262.969 373.609 263.356 373.753 263.356C374.326 262.897 374.871 262.381 375.387 261.808C375.931 261.206 376.49 260.532 377.064 259.787C377.666 259.013 378.325 258.139 379.042 257.164C379.3 256.677 379.558 256.204 379.816 255.745C380.074 255.286 380.289 254.813 380.461 254.326C380.633 253.953 380.805 253.652 380.977 253.423C381.149 253.194 381.292 253.065 381.407 253.036C381.55 252.979 381.722 252.993 381.923 253.079C382.152 253.165 382.353 253.265 382.525 253.38C382.725 253.466 382.826 253.538 382.826 253.595C382.854 253.624 382.926 253.652 383.041 253.681C383.155 253.71 383.27 253.738 383.385 253.767C383.528 253.767 383.6 253.81 383.6 253.896C383.6 253.953 383.528 254.14 383.385 254.455C383.27 254.77 383.127 255.129 382.955 255.53C382.811 255.903 382.682 256.247 382.568 256.562C382.453 256.849 382.41 257.021 382.439 257.078C382.496 257.135 382.453 257.35 382.31 257.723C382.166 258.067 381.994 258.454 381.794 258.884C381.622 259.314 381.464 259.701 381.321 260.045C381.034 260.991 380.704 261.937 380.332 262.883C379.959 263.8 379.515 264.718 378.999 265.635C378.827 265.979 378.569 266.509 378.225 267.226C377.909 267.943 377.594 268.645 377.279 269.333C376.992 270.05 376.763 270.594 376.591 270.967C376.476 271.196 376.304 271.555 376.075 272.042C375.874 272.558 375.645 273.117 375.387 273.719C375.157 274.321 374.928 274.88 374.699 275.396C374.469 275.941 374.297 276.356 374.183 276.643C374.125 277.188 373.996 277.589 373.796 277.847C373.681 277.847 373.552 277.847 373.409 277.847C373.265 277.876 373.194 277.89 373.194 277.89ZM385.14 266.452C385.025 266.223 384.882 266.051 384.71 265.936C384.538 265.793 384.452 265.664 384.452 265.549C384.452 265.434 384.438 265.32 384.409 265.205C384.409 265.062 384.352 264.933 384.237 264.818C384.094 264.646 384.108 264.259 384.28 263.657C384.452 263.026 384.739 262.267 385.14 261.378C385.541 260.461 386.014 259.5 386.559 258.497C386.788 258.268 387.018 257.967 387.247 257.594C387.476 257.221 387.648 256.978 387.763 256.863C387.763 256.748 387.806 256.648 387.892 256.562C387.978 256.447 388.078 256.39 388.193 256.39V256.132C388.193 255.989 388.322 255.745 388.58 255.401C388.867 255.057 389.211 254.684 389.612 254.283C390.013 253.853 390.429 253.452 390.859 253.079C391.289 252.678 391.647 252.391 391.934 252.219C392.536 251.818 393.152 251.574 393.783 251.488C394.442 251.402 395.001 251.545 395.46 251.918C395.546 252.004 395.689 252.147 395.89 252.348C396.091 252.549 396.32 252.778 396.578 253.036C396.865 253.265 397.151 253.509 397.438 253.767L399.029 255.186L398.255 257.336C397.882 258.483 397.782 259.486 397.954 260.346C398.155 261.206 398.441 261.951 398.814 262.582C398.957 262.897 399.244 263.198 399.674 263.485C400.133 263.772 400.563 263.944 400.964 264.001C401.193 264.03 401.408 264.116 401.609 264.259C401.81 264.402 401.91 264.632 401.91 264.947C401.91 265.234 401.853 265.463 401.738 265.635C401.623 265.807 401.423 265.922 401.136 265.979C400.19 266.094 399.301 265.864 398.47 265.291C397.667 264.718 396.922 263.772 396.234 262.453C396.119 262.281 395.962 261.966 395.761 261.507C395.589 261.02 395.489 260.704 395.46 260.561C395.345 260.704 395.13 260.977 394.815 261.378C394.5 261.751 394.256 262.023 394.084 262.195C392.049 264.259 390.286 265.649 388.795 266.366C387.333 267.054 386.115 267.083 385.14 266.452ZM386.688 264.044C386.688 264.245 386.989 264.245 387.591 264.044C388.222 263.815 388.895 263.413 389.612 262.84C390.587 262.009 391.561 261.091 392.536 260.088C393.539 259.085 394.342 258.153 394.944 257.293L395.89 255.745C395.603 255.086 395.288 254.641 394.944 254.412C394.629 254.154 394.356 254.025 394.127 254.025C393.754 254.025 393.195 254.369 392.45 255.057C391.733 255.745 390.959 256.662 390.128 257.809C389.297 258.956 388.508 260.217 387.763 261.593C387.476 262.166 387.218 262.725 386.989 263.27C386.788 263.786 386.688 264.044 386.688 264.044ZM404.126 267.785C403.896 267.699 403.653 267.527 403.395 267.269C403.137 266.982 402.922 266.653 402.75 266.28C402.578 265.907 402.492 265.563 402.492 265.248C402.635 264.933 402.821 264.388 403.051 263.614C403.28 262.811 403.567 261.894 403.911 260.862C404.14 260.547 404.312 260.174 404.427 259.744C404.57 259.314 404.699 258.927 404.814 258.583C405.043 258.124 405.315 257.537 405.631 256.82C405.946 256.075 406.247 255.329 406.534 254.584C406.849 253.81 407.121 253.165 407.351 252.649C407.723 251.875 408.039 251.173 408.297 250.542C408.583 249.883 408.856 249.223 409.114 248.564C409.4 247.905 409.701 247.188 410.017 246.414C410.361 245.611 410.705 244.794 411.049 243.963C411.421 243.132 411.737 242.386 411.995 241.727C412.281 241.039 412.453 240.552 412.511 240.265C412.511 240.036 412.554 239.864 412.64 239.749C412.754 239.634 412.869 239.577 412.984 239.577C413.098 239.462 413.213 239.405 413.328 239.405C413.442 239.376 413.557 239.362 413.672 239.362C413.786 239.362 414.001 239.577 414.317 240.007C414.661 240.437 414.833 240.824 414.833 241.168C414.833 241.627 414.603 242.487 414.145 243.748C413.715 245.009 413.098 246.443 412.296 248.048C411.321 250.169 410.533 251.918 409.931 253.294C409.329 254.641 408.913 255.659 408.684 256.347C408.454 257.006 408.368 257.379 408.426 257.465C408.426 257.465 408.626 257.379 409.028 257.207C409.429 257.006 409.859 256.734 410.318 256.39C410.633 256.218 410.977 256.003 411.35 255.745C411.722 255.487 412.081 255.243 412.425 255.014C412.769 254.756 413.055 254.598 413.285 254.541C413.629 254.312 413.987 254.097 414.36 253.896C414.732 253.667 414.976 253.495 415.091 253.38C415.578 253.151 415.936 253.079 416.166 253.165C416.424 253.251 416.682 253.466 416.94 253.81C417.255 254.183 417.312 254.512 417.112 254.799C416.911 255.057 416.438 255.415 415.693 255.874C415.091 256.247 414.36 256.691 413.5 257.207C412.668 257.723 411.923 258.182 411.264 258.583C410.633 258.984 410.275 259.228 410.189 259.314C410.189 259.314 410.303 259.529 410.533 259.959C410.762 260.389 410.991 260.776 411.221 261.12C411.45 261.579 411.694 262.009 411.952 262.41C412.238 262.783 412.382 263.041 412.382 263.184C412.697 264.073 413.17 264.718 413.801 265.119C414.431 265.52 415.091 265.563 415.779 265.248C416.352 265.019 416.768 264.947 417.026 265.033C417.312 265.119 417.513 265.334 417.628 265.678C417.742 265.907 417.771 266.079 417.714 266.194C417.685 266.28 417.499 266.495 417.155 266.839C416.61 267.384 416.051 267.728 415.478 267.871C414.933 268.014 414.431 267.971 413.973 267.742C413.543 267.771 413.012 267.498 412.382 266.925C411.751 266.323 410.848 265.262 409.673 263.743C409.673 263.628 409.615 263.471 409.501 263.27C409.415 263.041 409.314 262.826 409.2 262.625C409.085 262.396 408.942 262.152 408.77 261.894C408.598 261.607 408.512 261.464 408.512 261.464C408.512 261.349 408.469 261.22 408.383 261.077C408.297 260.934 408.182 260.762 408.039 260.561C407.58 260.418 407.25 260.504 407.05 260.819C406.849 261.134 406.634 261.464 406.405 261.808C406.261 262.181 406.075 262.711 405.846 263.399C405.645 264.058 405.473 264.703 405.33 265.334C405.215 265.965 405.186 266.395 405.244 266.624C405.244 267.083 405.172 267.398 405.029 267.57C404.885 267.713 404.584 267.785 404.126 267.785Z" fill="black"/>
<defs>
<filter id="filter0_d_610_2477" x="0" y="37" width="248" height="248" filterUnits="userSpaceOnUse" color-interpolation-filters="sRGB">
<feFlood flood-opacity="0" result="BackgroundImageFix"/>
<feColorMatrix in="SourceAlpha" type="matrix" values="0 0 0 0 0 0 0 0 0 0 0 0 0 0 0 0 0 0 127 0" result="hardAlpha"/>
<feOffset dy="4"/>
<feGaussianBlur stdDeviation="6.5"/>
<feComposite in2="hardAlpha" operator="out"/>
<feColorMatrix type="matrix" values="0 0 0 0 0 0 0 0 0 0 0 0 0 0 0 0 0 0 0.25 0"/>
<feBlend mode="normal" in2="BackgroundImageFix" result="effect1_dropShadow_610_2477"/>
<feBlend mode="normal" in="SourceGraphic" in2="effect1_dropShadow_610_2477" result="shape"/>
</filter>
<filter id="filter1_d_610_2477" x="84.5703" y="92.4023" width="273.305" height="157.676" filterUnits="userSpaceOnUse" color-interpolation-filters="sRGB">
<feFlood flood-opacity="0" result="BackgroundImageFix"/>
<feColorMatrix in="SourceAlpha" type="matrix" values="0 0 0 0 0 0 0 0 0 0 0 0 0 0 0 0 0 0 127 0" result="hardAlpha"/>
<feOffset dx="2" dy="4"/>
<feGaussianBlur stdDeviation="10"/>
<feComposite in2="hardAlpha" operator="out"/>
<feColorMatrix type="matrix" values="0 0 0 0 0 0 0 0 0 0 0 0 0 0 0 0 0 0 0.25 0"/>
<feBlend mode="normal" in2="BackgroundImageFix" result="effect1_dropShadow_610_2477"/>
<feBlend mode="normal" in="SourceGraphic" in2="effect1_dropShadow_610_2477" result="shape"/>
</filter>
</defs>
</svg>
